{"title":"ODLO.City-Biathlon.07-08-2011.Puttlingen.ZDF.WEBRip.240p.XviD","uid":6591228,"size":620298240,"categoryP":"video","categoryS":"tv_shows","magnet":"?xt=urn:btih:603db284989d319f8c604685ccf9b21ef650af73&amp;dn=ODLO.City-Biathlon.07-08-2011.Puttlingen.ZDF.WEBRip.240p.XviD&amp;tr=udp%3A%2F%2Ftracker.openbittorrent.com%3A80&amp;tr=udp%3A%2F%2Fopen.demonii.com%3A1337&amp;tr=udp%3A%2F%2Ftracker.coppersurfer.tk%3A6969&amp;tr=udp%3A%2F%2Fexodus.desync.com%3A6969","seeders":0,"leechers":1,"uploader":null,"files":-1,"time":1312833948,"description":"Since 2008 ODLO City Biathlon is an international summer biathlon event, held annually since 2005 in P?ttlingen in Saarland. In addition to active competitions for men and women, each consisting of one qualifying race and finals, it was in 2007, also a former All-Star race biathlon stars like Raphael Poir?e, Liv Grete Poir?e, Sven Fischer and Ricco Gross.\n\n\nParticipants 2011\n\nMen: Ole Einar Bjoerndalen (NOR), Tarjei Boe (NOR), Michael Greis (GER), Martin Fourcade (FRA), Bjoern Ferry (SWE), Ivan Tcherezov (RUS), Andreas Birnbacher (GER), Daniel Boehm (GER)\n\nWomen: Kaisa Makarainen (FIN), Magdalena Neuner (GER), Andrea Henkel (GER), Helena Ekholm (SWE) will be replaced by Selina Gasparin (SUI), Tora Berger (NOR), Marie Laure Brunet (FRA), Darya Domracheva (BLR), Sabrina Buchholz (GER)\n\n\nScreenshots:  &lt;a href=&quot;\nhttp://img820.imageshack.us/img820/3105/odlocitybiathlon0708201.png&quot; rel=&quot;nofollow&quot; target=&quot;_NEW&quot;&gt;\nhttp://img820.imageshack.us/img820/3105/odlocitybiathlon0708201.png&lt;/a&gt;  &lt;a href=&quot;\nhttp://img263.imageshack.us/img263/3105/odlocitybiathlon0708201.png&quot; rel=&quot;nofollow&quot; target=&quot;_NEW&quot;&gt;\nhttp://img263.imageshack.us/img263/3105/odlocitybiathlon0708201.png&lt;/a&gt;  &lt;a href=&quot;\nhttp://img685.imageshack.us/img685/3105/odlocitybiathlon0708201.png&quot; rel=&quot;nofollow&quot; target=&quot;_NEW&quot;&gt;\nhttp://img685.imageshack.us/img685/3105/odlocitybiathlon0708201.png&lt;/a&gt;  &lt;a href=&quot;\nhttp://img560.imageshack.us/img560/3105/odlocitybiathlon0708201.png&quot; rel=&quot;nofollow&quot; target=&quot;_NEW&quot;&gt;\nhttp://img560.imageshack.us/img560/3105/odlocitybiathlon0708201.png&lt;/a&gt;  &lt;a href=&quot;\nhttp://img19.imageshack.us/img19/3105/odlocitybiathlon0708201.png&quot; rel=&quot;nofollow&quot; target=&quot;_NEW&quot;&gt;\nhttp://img19.imageshack.us/img19/3105/odlocitybiathlon0708201.png&lt;/a&gt;\n\nVideo\nID                               : 0\nFormat                           : MPEG-4 Visual\nFormat profile                   : Advanced Simple@L5\nFormat settings, BVOP            : 2\nFormat settings, QPel            : No\nFormat settings, GMC             : No warppoints\nFormat settings, Matrix          : Default (MPEG)\nMuxing mode                      : Packed bitstream\nCodec ID                         : XVID\nCodec ID/Hint                    : XviD\nDuration                         : 1h 32mn\nBit rate                         : 756 Kbps\nWidth                            : 432 pixels\nHeight                           : 240 pixels\nDisplay aspect ratio             : 16:9\nFrame rate                       : 25.000 fps\nColor space                      : YUV\nChroma subsampling               : 4:2:0\nBit depth                        : 8 bits\nScan type                        : Progressive\nCompression mode                 : Lossy\nBits/(Pixel*Frame)               : 0.292\nStream size                      : 500 MiB (85%)\nWriting library                  : XviD 64\n\nAudio\nID                               : 1\nFormat                           : MPEG Audio\nFormat version                   : Version 1\nFormat profile                   : Layer 3\nMode                             : Joint stereo\nMode extension                   : MS Stereo\nCodec ID                         : 55\nCodec ID/Hint                    : MP3\nDuration                         : 1h 32mn\nBit rate mode                    : Constant\nBit rate                         : 128 Kbps\nChannel(s)                       : 2 channels\nSampling rate                    : 44.1 KHz\nCompression mode                 : Lossy\nStream size                      : 84.8 MiB (14%)\nAlignment                        : Split accross interleaves\nInterleave, duration             : 40 ms (0.99 video frame)\nInterleave, preload duration     : 500 ms\n\nVideo &amp; Audio synchronized","torrent":{"xt":"urn:btih:603db284989d319f8c604685ccf9b21ef650af73","amp;dn":"ODLO.City-Biathlon.07-08-2011.Puttlingen.ZDF.WEBRip.240p.XviD","amp;tr":["udp%3A%2F%2Ftracker.openbittorrent.com%3A80","udp%3A%2F%2Fopen.demonii.com%3A1337","udp%3A%2F%2Ftracker.coppersurfer.tk%3A6969","udp%3A%2F%2Fexodus.desync.com%3A6969"],"infoHash":"603db284989d319f8c604685ccf9b21ef650af73","infoHashBuffer":{"type":"Buffer","data":[96,61,178,132,152,157,49,159,140,96,70,133,204,249,178,30,246,80,175,115]},"announce":[],"urlList":[]}}